<mxfile host="www.draw.io" modified="2019-10-14T14:57:35.948Z" agent="Mozilla/5.0 (X11; Linux x86_64) AppleWebKit/537.36 (KHTML, like Gecko) Chrome/76.0.3809.100 Safari/537.36" etag="svn8Y9o7OmHcSs4eXk8q" version="12.1.1" type="github" pages="1">
  <diagram id="5j_FTSS8o6x0OOH8EMfe" name="Page-1">
    <mxGraphModel dx="4932" dy="564" grid="0" gridSize="10" guides="1" tooltips="1" connect="0" arrows="1" fold="1" page="1" pageScale="1" pageWidth="4000" pageHeight="2000" background="#ffffff" math="0" shadow="0">
      <root>
        <mxCell id="0"/>
        <mxCell id="1" parent="0"/>
        <mxCell id="9MJ-vWY7rZcoQqbFH4Ai-3" style="edgeStyle=orthogonalEdgeStyle;rounded=0;orthogonalLoop=1;jettySize=auto;html=1;endArrow=diamond;endFill=1;" parent="1" source="5d2195bd80daf111-10" target="FB8TFo3xgYdQzvMxZdlZ-6" edge="1">
          <mxGeometry relative="1" as="geometry">
            <Array as="points">
              <mxPoint x="1406.5" y="3078.5"/>
              <mxPoint x="1406.5" y="3078.5"/>
            </Array>
          </mxGeometry>
        </mxCell>
        <mxCell id="5d2195bd80daf111-10" value="&lt;p style=&quot;margin: 0px ; margin-top: 4px ; text-align: center&quot;&gt;&lt;b&gt;&lt;i&gt;plant&lt;/i&gt;&lt;/b&gt;&lt;/p&gt;&lt;hr size=&quot;1&quot;&gt;&lt;p style=&quot;margin: 0px ; margin-left: 4px&quot;&gt;# activeStatus : boolean&lt;/p&gt;&lt;p style=&quot;margin: 0px ; margin-left: 4px&quot;&gt;# health : int&lt;/p&gt;&lt;p style=&quot;margin: 0px ; margin-left: 4px&quot;&gt;# MAXHEALTH : int&lt;/p&gt;&lt;p style=&quot;margin: 0px ; margin-left: 4px&quot;&gt;# deathAnimation: Image&lt;br&gt;&lt;/p&gt;&lt;hr size=&quot;1&quot;&gt;&lt;p style=&quot;margin: 0px ; margin-left: 4px&quot;&gt;&lt;i&gt;+ deathAnimation() : void&lt;/i&gt;&lt;/p&gt;&lt;p style=&quot;margin: 0px ; margin-left: 4px&quot;&gt;&lt;i&gt;&lt;span&gt;+&amp;nbsp;&lt;/span&gt;&lt;span&gt;perform() : void&lt;/span&gt;&lt;br&gt;&lt;/i&gt;&lt;/p&gt;&lt;p style=&quot;margin: 0px 0px 0px 4px&quot;&gt;&lt;br&gt;&lt;/p&gt;" style="verticalAlign=top;align=left;overflow=fill;fontSize=12;fontFamily=Helvetica;html=1;rounded=0;shadow=0;comic=0;labelBackgroundColor=none;strokeWidth=1;" parent="1" vertex="1">
          <mxGeometry x="1123.5" y="3168" width="370" height="172" as="geometry"/>
        </mxCell>
        <mxCell id="n6mAovTL0kQWr7K4-52L-12" value="&lt;p style=&quot;margin: 0px ; margin-top: 4px ; text-align: center&quot;&gt;&lt;b&gt;peashooter&lt;/b&gt;&lt;/p&gt;&lt;hr size=&quot;1&quot;&gt;&lt;p style=&quot;margin: 0px ; margin-left: 4px&quot;&gt;- animation: Image&lt;br&gt;&lt;u&gt;- unlockStatus : boolean&lt;br&gt;&lt;/u&gt;&lt;/p&gt;&lt;hr size=&quot;1&quot;&gt;&lt;p style=&quot;margin: 0px ; margin-left: 4px&quot;&gt;+ peashooter()&lt;/p&gt;&lt;p style=&quot;margin: 0px 0px 0px 4px&quot;&gt;+ deathAnimation() : void&lt;/p&gt;&lt;p style=&quot;margin: 0px 0px 0px 4px&quot;&gt;+&amp;nbsp;perform() : void&lt;br&gt;&lt;/p&gt;&lt;p style=&quot;margin: 0px 0px 0px 4px&quot;&gt;&lt;br&gt;&lt;/p&gt;" style="verticalAlign=top;align=left;overflow=fill;fontSize=12;fontFamily=Helvetica;html=1;rounded=0;shadow=0;comic=0;labelBackgroundColor=none;strokeColor=#000000;strokeWidth=1;fillColor=#ffffff;" parent="1" vertex="1">
          <mxGeometry x="967.5" y="3476.5" width="275" height="133" as="geometry"/>
        </mxCell>
        <mxCell id="n6mAovTL0kQWr7K4-52L-13" value="&lt;p style=&quot;margin: 0px ; margin-top: 4px ; text-align: center&quot;&gt;&lt;b&gt;walnut&lt;/b&gt;&lt;/p&gt;&lt;hr size=&quot;1&quot;&gt;&lt;p style=&quot;margin: 0px ; margin-left: 4px&quot;&gt;- animation : Image&lt;/p&gt;&lt;p style=&quot;margin: 0px ; margin-left: 4px&quot;&gt;- fullAnimation: Image&amp;nbsp;&lt;/p&gt;&lt;p style=&quot;margin: 0px ; margin-left: 4px&quot;&gt;- halfAnimation: Image&amp;nbsp;&lt;/p&gt;&lt;p style=&quot;margin: 0px ; margin-left: 4px&quot;&gt;&lt;u&gt;&lt;span&gt;- unlockStatus : boolean&lt;/span&gt;&lt;br&gt;&lt;/u&gt;&lt;/p&gt;&lt;hr size=&quot;1&quot;&gt;&lt;p style=&quot;margin: 0px ; margin-left: 4px&quot;&gt;+ walnut()&lt;/p&gt;&lt;p style=&quot;margin: 0px 0px 0px 4px&quot;&gt;+ deathAnimation() : void&lt;/p&gt;&lt;p style=&quot;margin: 0px 0px 0px 4px&quot;&gt;+&amp;nbsp;perform() : void&lt;br&gt;&lt;/p&gt;&lt;p style=&quot;margin: 0px 0px 0px 4px&quot;&gt;&lt;br&gt;&lt;/p&gt;" style="verticalAlign=top;align=left;overflow=fill;fontSize=12;fontFamily=Helvetica;html=1;rounded=0;shadow=0;comic=0;labelBackgroundColor=none;strokeColor=#000000;strokeWidth=1;fillColor=#ffffff;" parent="1" vertex="1">
          <mxGeometry x="1353.5" y="3465.5" width="301" height="150" as="geometry"/>
        </mxCell>
        <mxCell id="n6mAovTL0kQWr7K4-52L-14" value="&lt;p style=&quot;margin: 0px ; margin-top: 4px ; text-align: center&quot;&gt;&lt;b&gt;sunflower&lt;/b&gt;&lt;/p&gt;&lt;hr size=&quot;1&quot;&gt;&amp;nbsp;- animation: Image&amp;nbsp;&lt;br&gt;&lt;u&gt;&lt;span&gt;- unlockStatus : boolean&lt;/span&gt;&lt;br&gt;&lt;/u&gt;&lt;hr size=&quot;1&quot;&gt;&lt;p style=&quot;margin: 0px ; margin-left: 4px&quot;&gt;+ sunflower()&lt;/p&gt;&lt;p style=&quot;margin: 0px 0px 0px 4px&quot;&gt;+ deathAnimation() : void&lt;/p&gt;&lt;p style=&quot;margin: 0px 0px 0px 4px&quot;&gt;+&amp;nbsp;perform() : void&lt;br&gt;&lt;/p&gt;&lt;p style=&quot;margin: 0px 0px 0px 4px&quot;&gt;&lt;br&gt;&lt;/p&gt;&lt;p style=&quot;margin: 0px ; margin-left: 4px&quot;&gt;&lt;br&gt;&lt;/p&gt;" style="verticalAlign=top;align=left;overflow=fill;fontSize=12;fontFamily=Helvetica;html=1;rounded=0;shadow=0;comic=0;labelBackgroundColor=none;strokeColor=#000000;strokeWidth=1;fillColor=#ffffff;" parent="1" vertex="1">
          <mxGeometry x="990.5" y="3668" width="295" height="142" as="geometry"/>
        </mxCell>
        <mxCell id="n6mAovTL0kQWr7K4-52L-15" value="&lt;p style=&quot;margin: 0px ; margin-top: 4px ; text-align: center&quot;&gt;&lt;b&gt;basic&lt;/b&gt;&lt;/p&gt;&lt;hr size=&quot;1&quot;&gt;&lt;p style=&quot;margin: 0px ; margin-left: 4px&quot;&gt;&lt;span&gt;&amp;nbsp;- animation: Image&amp;nbsp;&lt;/span&gt;&lt;br&gt;&lt;/p&gt;&lt;p style=&quot;margin: 0px ; margin-left: 4px&quot;&gt;&amp;nbsp;- eatAnimation : Image&lt;/p&gt;&lt;p style=&quot;margin: 0px ; margin-left: 4px&quot;&gt;&amp;nbsp;- deathanimation : Image&lt;/p&gt;&lt;hr size=&quot;1&quot;&gt;&lt;p style=&quot;margin: 0px ; margin-left: 4px&quot;&gt;+ basic()&lt;/p&gt;&lt;p style=&quot;margin: 0px 0px 0px 4px&quot;&gt;+ attack(): void&lt;/p&gt;&lt;p style=&quot;margin: 0px 0px 0px 4px&quot;&gt;+ death(): void&lt;/p&gt;&lt;div&gt;&lt;br&gt;&lt;/div&gt;&lt;div&gt;&lt;i&gt;&lt;br&gt;&lt;/i&gt;&lt;/div&gt;" style="verticalAlign=top;align=left;overflow=fill;fontSize=12;fontFamily=Helvetica;html=1;rounded=0;shadow=0;comic=0;labelBackgroundColor=none;strokeColor=#000000;strokeWidth=1;fillColor=#ffffff;" parent="1" vertex="1">
          <mxGeometry x="1765" y="3486" width="293" height="143" as="geometry"/>
        </mxCell>
        <mxCell id="n6mAovTL0kQWr7K4-52L-16" value="&lt;p style=&quot;margin: 0px ; margin-top: 4px ; text-align: center&quot;&gt;&lt;b&gt;cherrybomb&lt;/b&gt;&lt;/p&gt;&lt;hr size=&quot;1&quot;&gt;&lt;p style=&quot;margin: 0px 0px 0px 4px&quot;&gt;- animation : Image&amp;nbsp;&lt;/p&gt;&lt;p style=&quot;margin: 0px ; margin-left: 4px&quot;&gt;&lt;u&gt;&lt;span&gt;- unlockStatus : boolean&lt;/span&gt;&lt;br&gt;&lt;/u&gt;&lt;/p&gt;&lt;hr size=&quot;1&quot;&gt;&lt;p style=&quot;margin: 0px ; margin-left: 4px&quot;&gt;+ cherrybomb()&lt;/p&gt;&lt;p style=&quot;margin: 0px 0px 0px 4px&quot;&gt;+ deathAnimation() : void&lt;/p&gt;&lt;p style=&quot;margin: 0px 0px 0px 4px&quot;&gt;+&amp;nbsp;perform() : void&lt;br&gt;&lt;/p&gt;&lt;p style=&quot;margin: 0px 0px 0px 4px&quot;&gt;&lt;br&gt;&lt;/p&gt;&lt;p style=&quot;margin: 0px ; margin-left: 4px&quot;&gt;&lt;br&gt;&lt;/p&gt;" style="verticalAlign=top;align=left;overflow=fill;fontSize=12;fontFamily=Helvetica;html=1;rounded=0;shadow=0;comic=0;labelBackgroundColor=none;strokeColor=#000000;strokeWidth=1;fillColor=#ffffff;" parent="1" vertex="1">
          <mxGeometry x="1303.5" y="3668.5" width="289" height="139" as="geometry"/>
        </mxCell>
        <mxCell id="n6mAovTL0kQWr7K4-52L-19" value="" style="endArrow=block;endFill=0;endSize=12;html=1;entryX=0.136;entryY=1.001;entryDx=0;entryDy=0;entryPerimeter=0;exitX=0.75;exitY=0.001;exitDx=0;exitDy=0;exitPerimeter=0;" parent="1" source="n6mAovTL0kQWr7K4-52L-12" target="5d2195bd80daf111-10" edge="1">
          <mxGeometry width="160" relative="1" as="geometry">
            <mxPoint x="1173.5" y="3487" as="sourcePoint"/>
            <mxPoint x="1174.5" y="3371" as="targetPoint"/>
          </mxGeometry>
        </mxCell>
        <mxCell id="n6mAovTL0kQWr7K4-52L-20" value="" style="endArrow=block;endFill=0;endSize=12;html=1;exitX=0.925;exitY=0.013;exitDx=0;exitDy=0;exitPerimeter=0;entryX=0.377;entryY=0.995;entryDx=0;entryDy=0;entryPerimeter=0;" parent="1" source="n6mAovTL0kQWr7K4-52L-14" target="5d2195bd80daf111-10" edge="1">
          <mxGeometry width="160" relative="1" as="geometry">
            <mxPoint x="1254.46" y="3417.5" as="sourcePoint"/>
            <mxPoint x="1289.5" y="3397" as="targetPoint"/>
          </mxGeometry>
        </mxCell>
        <mxCell id="n6mAovTL0kQWr7K4-52L-21" value="" style="endArrow=block;endFill=0;endSize=12;html=1;entryX=0.541;entryY=0.997;entryDx=0;entryDy=0;entryPerimeter=0;exitX=0.067;exitY=0.002;exitDx=0;exitDy=0;exitPerimeter=0;" parent="1" source="n6mAovTL0kQWr7K4-52L-16" target="5d2195bd80daf111-10" edge="1">
          <mxGeometry width="160" relative="1" as="geometry">
            <mxPoint x="1323.5" y="3612" as="sourcePoint"/>
            <mxPoint x="1323.37" y="3340.828" as="targetPoint"/>
          </mxGeometry>
        </mxCell>
        <mxCell id="n6mAovTL0kQWr7K4-52L-22" value="" style="endArrow=block;endFill=0;endSize=12;html=1;exitX=0.109;exitY=0.004;exitDx=0;exitDy=0;exitPerimeter=0;entryX=0.706;entryY=1.012;entryDx=0;entryDy=0;entryPerimeter=0;" parent="1" source="n6mAovTL0kQWr7K4-52L-13" target="5d2195bd80daf111-10" edge="1">
          <mxGeometry width="160" relative="1" as="geometry">
            <mxPoint x="1414.46" y="3417.5" as="sourcePoint"/>
            <mxPoint x="1382.5" y="3426" as="targetPoint"/>
          </mxGeometry>
        </mxCell>
        <mxCell id="n6mAovTL0kQWr7K4-52L-23" value="&lt;p style=&quot;margin: 0px ; margin-top: 4px ; text-align: center&quot;&gt;&lt;b&gt;conehead&lt;/b&gt;&lt;br&gt;&lt;/p&gt;&lt;hr size=&quot;1&quot;&gt;&amp;nbsp;- animation: Image&lt;br&gt;&lt;p style=&quot;margin: 0px ; margin-left: 4px&quot;&gt;- eatAnimation : Image&lt;/p&gt;&lt;p style=&quot;margin: 0px ; margin-left: 4px&quot;&gt;- deathanimation : Image&lt;/p&gt;&lt;p style=&quot;margin: 0px ; margin-left: 4px&quot;&gt;- coneHealth : int&lt;/p&gt;&lt;hr size=&quot;1&quot;&gt;&lt;p style=&quot;margin: 0px ; margin-left: 4px&quot;&gt;+ conehead()&lt;/p&gt;&lt;p style=&quot;margin: 0px ; margin-left: 4px&quot;&gt;+ attack() : void&lt;br&gt;&lt;/p&gt;&lt;p style=&quot;margin: 0px 0px 0px 4px&quot;&gt;+ death(): void&lt;/p&gt;&lt;div&gt;&lt;br&gt;&lt;/div&gt;&lt;p style=&quot;margin: 0px ; margin-left: 4px&quot;&gt;&lt;br&gt;&lt;/p&gt;" style="verticalAlign=top;align=left;overflow=fill;fontSize=12;fontFamily=Helvetica;html=1;rounded=0;shadow=0;comic=0;labelBackgroundColor=none;strokeColor=#000000;strokeWidth=1;fillColor=#ffffff;" parent="1" vertex="1">
          <mxGeometry x="1917.5" y="3658.5" width="320" height="151" as="geometry"/>
        </mxCell>
        <mxCell id="n6mAovTL0kQWr7K4-52L-24" value="&lt;p style=&quot;margin: 0px ; margin-top: 4px ; text-align: center&quot;&gt;&lt;b&gt;buckethead&lt;/b&gt;&lt;/p&gt;&lt;hr size=&quot;1&quot;&gt;&amp;nbsp; - animation: Image&amp;nbsp;&lt;br&gt;&lt;p style=&quot;margin: 0px ; margin-left: 4px&quot;&gt;&amp;nbsp;- eatAnimation : Image&lt;/p&gt;&lt;p style=&quot;margin: 0px ; margin-left: 4px&quot;&gt;&amp;nbsp;- deathanimation : Image&lt;/p&gt;&lt;p style=&quot;margin: 0px ; margin-left: 4px&quot;&gt;&amp;nbsp;- bucketHealth : int&lt;/p&gt;&lt;hr size=&quot;1&quot;&gt;&lt;p style=&quot;margin: 0px ; margin-left: 4px&quot;&gt;&lt;span&gt;+ buckethead()&lt;/span&gt;&lt;br&gt;&lt;/p&gt;&lt;p style=&quot;margin: 0px 0px 0px 4px&quot;&gt;+ attack(): void&lt;/p&gt;&lt;p style=&quot;margin: 0px 0px 0px 4px&quot;&gt;+ death(): void&lt;/p&gt;&lt;div&gt;&lt;br&gt;&lt;/div&gt;&lt;div&gt;&lt;br&gt;&lt;/div&gt;" style="verticalAlign=top;align=left;overflow=fill;fontSize=12;fontFamily=Helvetica;html=1;rounded=0;shadow=0;comic=0;labelBackgroundColor=none;strokeColor=#000000;strokeWidth=1;fillColor=#ffffff;" parent="1" vertex="1">
          <mxGeometry x="2091.5" y="3486.5" width="331" height="150" as="geometry"/>
        </mxCell>
        <mxCell id="n6mAovTL0kQWr7K4-52L-26" value="&lt;p style=&quot;margin: 0px ; margin-top: 4px ; text-align: center&quot;&gt;&lt;b&gt;&lt;i&gt;zombie&lt;/i&gt;&lt;/b&gt;&lt;/p&gt;&lt;hr size=&quot;1&quot;&gt;&lt;p style=&quot;margin: 0px ; margin-left: 4px&quot;&gt;# health : float&lt;/p&gt;&lt;p style=&quot;margin: 0px ; margin-left: 4px&quot;&gt;# MAXHEALTH : int&lt;br&gt;# currentLocation : int[]&lt;/p&gt;&lt;p style=&quot;margin: 0px 0px 0px 4px&quot;&gt;#&amp;nbsp; int damage&lt;/p&gt;&lt;p style=&quot;margin: 0px ; margin-left: 4px&quot;&gt;# speed : int&lt;/p&gt;&lt;p style=&quot;margin: 0px ; margin-left: 4px&quot;&gt;# deathAnimation: Image&lt;br&gt;&lt;/p&gt;&lt;hr size=&quot;1&quot;&gt;&lt;p style=&quot;margin: 0px ; margin-left: 4px&quot;&gt;+ move() : void&lt;/p&gt;&lt;p style=&quot;margin: 0px ; margin-left: 4px&quot;&gt;&lt;span&gt;+ checkplantpresent(): bool&lt;/span&gt;&lt;br&gt;&lt;/p&gt;&lt;p style=&quot;margin: 0px 0px 0px 4px&quot;&gt;&lt;i&gt;+ attack(): void&lt;/i&gt;&lt;/p&gt;&lt;p style=&quot;margin: 0px 0px 0px 4px&quot;&gt;&lt;i&gt;+ death(): void&lt;/i&gt;&lt;/p&gt;&lt;div&gt;&lt;br&gt;&lt;/div&gt;&lt;div&gt;&lt;i&gt;&lt;br&gt;&lt;/i&gt;&lt;/div&gt;&lt;p style=&quot;margin: 0px ; margin-left: 4px&quot;&gt;&lt;br&gt;&lt;/p&gt;" style="verticalAlign=top;align=left;overflow=fill;fontSize=12;fontFamily=Helvetica;html=1;rounded=0;shadow=0;comic=0;labelBackgroundColor=none;strokeColor=#000000;strokeWidth=1;fillColor=#ffffff;" parent="1" vertex="1">
          <mxGeometry x="1892.5" y="3174" width="370" height="184" as="geometry"/>
        </mxCell>
        <mxCell id="n6mAovTL0kQWr7K4-52L-27" value="" style="endArrow=block;endFill=0;endSize=12;html=1;exitX=0.5;exitY=0;exitDx=0;exitDy=0;" parent="1" source="n6mAovTL0kQWr7K4-52L-23" target="n6mAovTL0kQWr7K4-52L-26" edge="1">
          <mxGeometry width="160" relative="1" as="geometry">
            <mxPoint x="2075.05" y="3596" as="sourcePoint"/>
            <mxPoint x="2075" y="3369.5" as="targetPoint"/>
          </mxGeometry>
        </mxCell>
        <mxCell id="n6mAovTL0kQWr7K4-52L-28" value="" style="endArrow=block;endFill=0;endSize=12;html=1;exitX=0.746;exitY=0.015;exitDx=0;exitDy=0;exitPerimeter=0;entryX=0.244;entryY=0.994;entryDx=0;entryDy=0;entryPerimeter=0;" parent="1" source="n6mAovTL0kQWr7K4-52L-15" target="n6mAovTL0kQWr7K4-52L-26" edge="1">
          <mxGeometry width="160" relative="1" as="geometry">
            <mxPoint x="1961" y="3442.5" as="sourcePoint"/>
            <mxPoint x="1987" y="3320.5" as="targetPoint"/>
          </mxGeometry>
        </mxCell>
        <mxCell id="n6mAovTL0kQWr7K4-52L-29" value="" style="endArrow=block;endFill=0;endSize=12;html=1;entryX=0.784;entryY=1.004;entryDx=0;entryDy=0;entryPerimeter=0;" parent="1" target="n6mAovTL0kQWr7K4-52L-26" edge="1">
          <mxGeometry width="160" relative="1" as="geometry">
            <mxPoint x="2183" y="3485.5" as="sourcePoint"/>
            <mxPoint x="2183" y="3352.5" as="targetPoint"/>
          </mxGeometry>
        </mxCell>
        <mxCell id="n6mAovTL0kQWr7K4-52L-30" value="&lt;p style=&quot;margin: 0px ; margin-top: 4px ; text-align: center&quot;&gt;&lt;b&gt;lawnmower&lt;/b&gt;&lt;/p&gt;&lt;hr size=&quot;1&quot;&gt;&lt;p style=&quot;margin: 0px ; margin-left: 4px&quot;&gt;- activeStatus : boolean&lt;br&gt;- speed : int&lt;/p&gt;&lt;hr size=&quot;1&quot;&gt;&lt;p style=&quot;margin: 0px ; margin-left: 4px&quot;&gt;+ lawnmower()&lt;/p&gt;&lt;p style=&quot;margin: 0px ; margin-left: 4px&quot;&gt;+ clearPath(int) : void&lt;br&gt;&lt;/p&gt;" style="verticalAlign=top;align=left;overflow=fill;fontSize=12;fontFamily=Helvetica;html=1;rounded=0;shadow=0;comic=0;labelBackgroundColor=none;strokeColor=#000000;strokeWidth=1;fillColor=#ffffff;" parent="1" vertex="1">
          <mxGeometry x="1605.5" y="3174" width="190" height="135" as="geometry"/>
        </mxCell>
        <mxCell id="n6mAovTL0kQWr7K4-52L-31" value="&lt;p style=&quot;margin: 0px ; margin-top: 4px ; text-align: center&quot;&gt;&lt;b&gt;sidebar&lt;/b&gt;&lt;/p&gt;&lt;hr size=&quot;1&quot;&gt;&lt;p style=&quot;margin: 0px ; margin-left: 4px&quot;&gt;# icontray : Arraylist &amp;lt;plants&amp;gt;&lt;br&gt;# suncount : int&lt;/p&gt;&lt;hr size=&quot;1&quot;&gt;&lt;p style=&quot;margin: 0px ; margin-left: 4px&quot;&gt;+ showAvailablePlants()&lt;/p&gt;&lt;p style=&quot;margin: 0px ; margin-left: 4px&quot;&gt;+ use()&lt;br&gt;&lt;i&gt;+ loadingAnimation() : void&lt;/i&gt;&lt;/p&gt;&lt;p style=&quot;margin: 0px ; margin-left: 4px&quot;&gt;&lt;i&gt;+ availableAnimation() : void&lt;/i&gt;&lt;/p&gt;" style="verticalAlign=top;align=left;overflow=fill;fontSize=12;fontFamily=Helvetica;html=1;rounded=0;shadow=0;comic=0;labelBackgroundColor=none;strokeColor=#000000;strokeWidth=1;fillColor=#ffffff;" parent="1" vertex="1">
          <mxGeometry x="2576" y="3168" width="1069" height="140" as="geometry"/>
        </mxCell>
        <mxCell id="n6mAovTL0kQWr7K4-52L-32" value="&lt;p style=&quot;margin: 0px ; margin-top: 4px ; text-align: center&quot;&gt;&lt;b&gt;peashooter_icon&lt;/b&gt;&lt;/p&gt;&lt;hr size=&quot;1&quot;&gt;&lt;p style=&quot;margin: 0px ; margin-left: 4px&quot;&gt;&lt;span&gt;- loadingGif: Image&amp;nbsp;&lt;/span&gt;&lt;br&gt;&lt;/p&gt;&lt;p style=&quot;margin: 0px 0px 0px 4px&quot;&gt;- availableGif: Image&amp;nbsp;&lt;/p&gt;&lt;p style=&quot;margin: 0px 0px 0px 4px&quot;&gt;&lt;br&gt;&lt;/p&gt;&lt;hr size=&quot;1&quot;&gt;&lt;p style=&quot;margin: 0px 0px 0px 4px&quot;&gt;+ loadingAnimation() : void&lt;/p&gt;&lt;p style=&quot;margin: 0px 0px 0px 4px&quot;&gt;+ availableAnimation() : void&lt;/p&gt;" style="verticalAlign=top;align=left;overflow=fill;fontSize=12;fontFamily=Helvetica;html=1;rounded=0;shadow=0;comic=0;labelBackgroundColor=none;strokeColor=#000000;strokeWidth=1;fillColor=#ffffff;" parent="1" vertex="1">
          <mxGeometry x="3038" y="3387.5" width="186" height="140" as="geometry"/>
        </mxCell>
        <mxCell id="9MJ-vWY7rZcoQqbFH4Ai-11" value="&lt;p style=&quot;margin: 0px ; margin-top: 4px ; text-align: center&quot;&gt;&lt;b&gt;sun_counter&lt;/b&gt;&lt;/p&gt;&lt;hr size=&quot;1&quot;&gt;&lt;p style=&quot;margin: 0px 0px 0px 4px&quot;&gt;&lt;span&gt;- animation : Image&amp;nbsp;&lt;/span&gt;&lt;br&gt;&lt;/p&gt;&lt;hr size=&quot;1&quot;&gt;&lt;p style=&quot;margin: 0px 0px 0px 4px&quot;&gt;+ sun_counter()&lt;/p&gt;&lt;p style=&quot;margin: 0px 0px 0px 4px&quot;&gt;+ update()&lt;/p&gt;" style="verticalAlign=top;align=left;overflow=fill;fontSize=12;fontFamily=Helvetica;html=1;rounded=0;shadow=0;comic=0;labelBackgroundColor=none;strokeColor=#000000;strokeWidth=1;fillColor=#ffffff;" parent="1" vertex="1">
          <mxGeometry x="2696" y="3390" width="187" height="98" as="geometry"/>
        </mxCell>
        <mxCell id="9MJ-vWY7rZcoQqbFH4Ai-86" style="edgeStyle=orthogonalEdgeStyle;rounded=0;orthogonalLoop=1;jettySize=auto;html=1;entryX=0.803;entryY=1.003;entryDx=0;entryDy=0;entryPerimeter=0;endArrow=diamond;endFill=1;" parent="1" source="n6mAovTL0kQWr7K4-52L-33" target="n6mAovTL0kQWr7K4-52L-31" edge="1">
          <mxGeometry relative="1" as="geometry">
            <Array as="points">
              <mxPoint x="3434.5" y="3370.5"/>
              <mxPoint x="3434.5" y="3370.5"/>
            </Array>
          </mxGeometry>
        </mxCell>
        <mxCell id="n6mAovTL0kQWr7K4-52L-33" value="&lt;p style=&quot;margin: 0px ; margin-top: 4px ; text-align: center&quot;&gt;&lt;b&gt;walnut_icon&lt;/b&gt;&lt;/p&gt;&lt;hr size=&quot;1&quot;&gt;&lt;p style=&quot;margin: 0px 0px 0px 4px&quot;&gt;&lt;span&gt;- loadingGif: Image&amp;nbsp;&lt;/span&gt;&lt;br&gt;&lt;/p&gt;&lt;p style=&quot;margin: 0px 0px 0px 4px&quot;&gt;- availableGif: Image&amp;nbsp;&lt;/p&gt;&lt;hr size=&quot;1&quot;&gt;&lt;p style=&quot;margin: 0px 0px 0px 4px&quot;&gt;+ loadingAnimation() : void&lt;/p&gt;&lt;p style=&quot;margin: 0px 0px 0px 4px&quot;&gt;+ availableAnimation() : void&lt;/p&gt;" style="verticalAlign=top;align=left;overflow=fill;fontSize=12;fontFamily=Helvetica;html=1;rounded=0;shadow=0;comic=0;labelBackgroundColor=none;strokeColor=#000000;strokeWidth=1;fillColor=#ffffff;" parent="1" vertex="1">
          <mxGeometry x="3346.5" y="3389.5" width="179" height="140" as="geometry"/>
        </mxCell>
        <mxCell id="n6mAovTL0kQWr7K4-52L-34" value="&lt;p style=&quot;margin: 0px ; margin-top: 4px ; text-align: center&quot;&gt;&lt;b&gt;sunflower_icon&lt;/b&gt;&lt;/p&gt;&lt;hr size=&quot;1&quot;&gt;&lt;p style=&quot;margin: 0px 0px 0px 4px&quot;&gt;&lt;span&gt;- loadingGif: Image&amp;nbsp;&lt;/span&gt;&lt;br&gt;&lt;/p&gt;&lt;p style=&quot;margin: 0px 0px 0px 4px&quot;&gt;- availableGif: Image&amp;nbsp;&lt;/p&gt;&lt;hr size=&quot;1&quot;&gt;&lt;p style=&quot;margin: 0px 0px 0px 4px&quot;&gt;+ loadingAnimation() : void&lt;/p&gt;&lt;p style=&quot;margin: 0px 0px 0px 4px&quot;&gt;+ availableAnimation() : void&lt;/p&gt;" style="verticalAlign=top;align=left;overflow=fill;fontSize=12;fontFamily=Helvetica;html=1;rounded=0;shadow=0;comic=0;labelBackgroundColor=none;strokeColor=#000000;strokeWidth=1;fillColor=#ffffff;" parent="1" vertex="1">
          <mxGeometry x="2882.5" y="3568.5" width="190" height="140" as="geometry"/>
        </mxCell>
        <mxCell id="9MJ-vWY7rZcoQqbFH4Ai-64" style="edgeStyle=orthogonalEdgeStyle;rounded=0;orthogonalLoop=1;jettySize=auto;html=1;dashed=1;endArrow=block;endFill=0;" parent="1" source="n6mAovTL0kQWr7K4-52L-35" target="9MJ-vWY7rZcoQqbFH4Ai-46" edge="1">
          <mxGeometry relative="1" as="geometry">
            <mxPoint x="3310.5" y="3823.3333333333335" as="targetPoint"/>
            <Array as="points">
              <mxPoint x="3310.5" y="3759.5"/>
              <mxPoint x="3310.5" y="3759.5"/>
            </Array>
          </mxGeometry>
        </mxCell>
        <mxCell id="n6mAovTL0kQWr7K4-52L-35" value="&lt;p style=&quot;margin: 0px ; margin-top: 4px ; text-align: center&quot;&gt;&lt;b&gt;cherrybomb_icon&lt;/b&gt;&lt;/p&gt;&lt;hr size=&quot;1&quot;&gt;&lt;p style=&quot;margin: 0px 0px 0px 4px&quot;&gt;&lt;span&gt;- loadingGif: Image&amp;nbsp;&lt;/span&gt;&lt;br&gt;&lt;/p&gt;&lt;p style=&quot;margin: 0px 0px 0px 4px&quot;&gt;- availableGif: Image&amp;nbsp;&lt;/p&gt;&lt;hr size=&quot;1&quot;&gt;&lt;p style=&quot;margin: 0px 0px 0px 4px&quot;&gt;+ loadingAnimation() : void&lt;/p&gt;&lt;p style=&quot;margin: 0px 0px 0px 4px&quot;&gt;+ availableAnimation() : void&lt;/p&gt;" style="verticalAlign=top;align=left;overflow=fill;fontSize=12;fontFamily=Helvetica;html=1;rounded=0;shadow=0;comic=0;labelBackgroundColor=none;strokeColor=#000000;strokeWidth=1;fillColor=#ffffff;" parent="1" vertex="1">
          <mxGeometry x="3224" y="3568.5" width="173" height="140" as="geometry"/>
        </mxCell>
        <mxCell id="9MJ-vWY7rZcoQqbFH4Ai-71" style="edgeStyle=orthogonalEdgeStyle;rounded=0;orthogonalLoop=1;jettySize=auto;html=1;entryX=0.004;entryY=0.505;entryDx=0;entryDy=0;entryPerimeter=0;endArrow=diamond;endFill=1;" parent="1" source="0bQBjBUCgi_9XKCkGWdM-1" target="n6mAovTL0kQWr7K4-52L-12" edge="1">
          <mxGeometry relative="1" as="geometry"/>
        </mxCell>
        <mxCell id="0bQBjBUCgi_9XKCkGWdM-1" value="&lt;p style=&quot;margin: 0px ; margin-top: 4px ; text-align: center&quot;&gt;&lt;b&gt;peaBullet&lt;/b&gt;&lt;/p&gt;&lt;hr size=&quot;1&quot;&gt;&lt;p style=&quot;margin: 0px 0px 0px 4px&quot;&gt;- animation : Image&lt;/p&gt;&lt;p style=&quot;margin: 0px ; margin-left: 4px&quot;&gt;- speed : int&lt;/p&gt;&lt;p style=&quot;margin: 0px ; margin-left: 4px&quot;&gt;- currentLocation : int[]&lt;/p&gt;&lt;hr size=&quot;1&quot;&gt;&lt;p style=&quot;margin: 0px ; margin-left: 4px&quot;&gt;+ peaBullet()&lt;/p&gt;&lt;p style=&quot;margin: 0px ; margin-left: 4px&quot;&gt;+ attack(currentZombie : zombie)&lt;br&gt;+ hitAnimation() : void&lt;/p&gt;" style="verticalAlign=top;align=left;overflow=fill;fontSize=12;fontFamily=Helvetica;html=1;rounded=0;shadow=0;comic=0;labelBackgroundColor=none;strokeColor=#000000;strokeWidth=1;fillColor=#ffffff;" parent="1" vertex="1">
          <mxGeometry x="517.86376953125" y="3476.5" width="273" height="133" as="geometry"/>
        </mxCell>
        <mxCell id="0bQBjBUCgi_9XKCkGWdM-2" value="&lt;p style=&quot;margin: 0px ; margin-top: 4px ; text-align: center&quot;&gt;&lt;b&gt;sun&lt;/b&gt;&lt;/p&gt;&lt;hr size=&quot;1&quot;&gt;&lt;p style=&quot;margin: 0px ; margin-left: 4px&quot;&gt;- animation : Image&lt;br&gt;- VALUE : int&lt;/p&gt;&lt;hr size=&quot;1&quot;&gt;&lt;p style=&quot;margin: 0px ; margin-left: 4px&quot;&gt;+ sun()&lt;/p&gt;&lt;p style=&quot;margin: 0px ; margin-left: 4px&quot;&gt;+ addValue() : void&lt;br&gt;&lt;br&gt;&lt;/p&gt;" style="verticalAlign=top;align=left;overflow=fill;fontSize=12;fontFamily=Helvetica;html=1;rounded=0;shadow=0;comic=0;labelBackgroundColor=none;strokeColor=#000000;strokeWidth=1;fillColor=#ffffff;" parent="1" vertex="1">
          <mxGeometry x="2322.5" y="3171.5" width="190" height="115" as="geometry"/>
        </mxCell>
        <mxCell id="9MJ-vWY7rZcoQqbFH4Ai-26" style="edgeStyle=orthogonalEdgeStyle;rounded=0;orthogonalLoop=1;jettySize=auto;html=1;endArrow=diamond;endFill=1;" parent="1" source="FB8TFo3xgYdQzvMxZdlZ-6" target="FB8TFo3xgYdQzvMxZdlZ-10" edge="1">
          <mxGeometry relative="1" as="geometry">
            <Array as="points">
              <mxPoint x="2409.5" y="2532.5"/>
              <mxPoint x="2409.5" y="2532.5"/>
            </Array>
          </mxGeometry>
        </mxCell>
        <mxCell id="nXd3PZgItRdIIApioZsA-1" style="edgeStyle=orthogonalEdgeStyle;rounded=0;orthogonalLoop=1;jettySize=auto;html=1;" edge="1" parent="1" source="FB8TFo3xgYdQzvMxZdlZ-6">
          <mxGeometry relative="1" as="geometry">
            <mxPoint x="947.214485168457" y="2824.5" as="targetPoint"/>
          </mxGeometry>
        </mxCell>
        <mxCell id="FB8TFo3xgYdQzvMxZdlZ-6" value="&lt;p style=&quot;margin: 0px ; margin-top: 4px ; text-align: center&quot;&gt;&lt;b&gt;gameRunner&lt;/b&gt;&lt;/p&gt;&lt;hr size=&quot;1&quot;&gt;&lt;p style=&quot;margin: 0px ; margin-left: 4px&quot;&gt;# levelList: ArrayList &amp;lt;level&amp;gt;&lt;br&gt;&lt;/p&gt;&lt;p style=&quot;margin: 0px ; margin-left: 4px&quot;&gt;# gridmap : Object [ ][ ]&lt;/p&gt;&lt;p style=&quot;margin: 0px ; margin-left: 4px&quot;&gt;# sunCount : int&lt;/p&gt;&lt;p style=&quot;margin: 0px ; margin-left: 4px&quot;&gt;# scoreCount : int&lt;/p&gt;&lt;p style=&quot;margin: 0px ; margin-left: 4px&quot;&gt;# currentWaveNumber : int&lt;/p&gt;&lt;p style=&quot;margin: 0px ; margin-left: 4px&quot;&gt;# totalWaves : int&lt;/p&gt;&lt;p style=&quot;margin: 0px ; margin-left: 4px&quot;&gt;- backgroundMusic : Media&lt;/p&gt;&lt;hr size=&quot;1&quot;&gt;&lt;p style=&quot;margin: 0px ; margin-left: 4px&quot;&gt;&lt;span&gt;+ gameRunner()&lt;/span&gt;&lt;/p&gt;&lt;p style=&quot;margin: 0px ; margin-left: 4px&quot;&gt;&lt;span&gt;+ loadlevel(ArrayList &amp;lt;level&amp;gt;) : level&lt;/span&gt;&lt;br&gt;&lt;/p&gt;&lt;p style=&quot;margin: 0px ; margin-left: 4px&quot;&gt;+ preparePlants(level) : void&lt;/p&gt;&lt;p style=&quot;margin: 0px ; margin-left: 4px&quot;&gt;+ prepareZombies(level) : void&lt;/p&gt;&lt;p style=&quot;margin: 0px ; margin-left: 4px&quot;&gt;+ resetSunCounter() : void&amp;nbsp;&lt;/p&gt;&lt;p style=&quot;margin: 0px ; margin-left: 4px&quot;&gt;+ resetTimer() : void&lt;/p&gt;&lt;p style=&quot;margin: 0px ; margin-left: 4px&quot;&gt;+ createSidebar() : void&lt;/p&gt;&lt;p style=&quot;margin: 0px ; margin-left: 4px&quot;&gt;+ playGame() : void&lt;/p&gt;&lt;p style=&quot;margin: 0px ; margin-left: 4px&quot;&gt;+ savelevel() : void&lt;/p&gt;" style="verticalAlign=top;align=left;overflow=fill;fontSize=12;fontFamily=Helvetica;html=1;rounded=0;shadow=0;comic=0;labelBackgroundColor=none;strokeColor=#000000;strokeWidth=1;fillColor=#ffffff;" parent="1" vertex="1">
          <mxGeometry x="1212.5" y="2676.5" width="2388" height="296" as="geometry"/>
        </mxCell>
        <mxCell id="9MJ-vWY7rZcoQqbFH4Ai-141" style="edgeStyle=orthogonalEdgeStyle;rounded=0;orthogonalLoop=1;jettySize=auto;html=1;entryX=0.004;entryY=0.371;entryDx=0;entryDy=0;entryPerimeter=0;endArrow=open;endFill=0;dashed=1;" parent="1" source="FB8TFo3xgYdQzvMxZdlZ-10" target="9MJ-vWY7rZcoQqbFH4Ai-110" edge="1">
          <mxGeometry relative="1" as="geometry"/>
        </mxCell>
        <mxCell id="FB8TFo3xgYdQzvMxZdlZ-10" value="&lt;p style=&quot;margin: 0px ; margin-top: 4px ; text-align: center&quot;&gt;&lt;b&gt;game&lt;/b&gt;&lt;/p&gt;&lt;hr size=&quot;1&quot;&gt;&lt;p style=&quot;margin: 0px ; margin-left: 4px&quot;&gt;- username : String&lt;br&gt;&lt;/p&gt;&lt;p style=&quot;margin: 0px ; margin-left: 4px&quot;&gt;- DeveloperScreen : Image&lt;/p&gt;&lt;p style=&quot;margin: 0px ; margin-left: 4px&quot;&gt;- LoadingScreen : Image&lt;/p&gt;&lt;hr size=&quot;1&quot;&gt;&lt;p style=&quot;margin: 0px ; margin-left: 4px&quot;&gt;+ showDeveloperScreen()&amp;nbsp; : void&lt;br&gt;+ showLoadingScreen() : void&lt;/p&gt;&lt;p style=&quot;margin: 0px ; margin-left: 4px&quot;&gt;+ checkuser() : void&amp;nbsp;&lt;/p&gt;&lt;p style=&quot;margin: 0px ; margin-left: 4px&quot;&gt;+ rungame() : void&lt;/p&gt;&lt;p style=&quot;margin: 0px ; margin-left: 4px&quot;&gt;+ savegame() : void&amp;nbsp;&lt;/p&gt;&lt;p style=&quot;margin: 0px ; margin-left: 4px&quot;&gt;+ exitGame() : void&lt;/p&gt;" style="verticalAlign=top;align=left;overflow=fill;fontSize=12;fontFamily=Helvetica;html=1;rounded=0;shadow=0;comic=0;labelBackgroundColor=none;strokeColor=#000000;strokeWidth=1;fillColor=#ffffff;" parent="1" vertex="1">
          <mxGeometry x="1801" y="2153" width="1027" height="186" as="geometry"/>
        </mxCell>
        <mxCell id="9MJ-vWY7rZcoQqbFH4Ai-20" value="&lt;p style=&quot;margin: 0px ; margin-top: 4px ; text-align: center&quot;&gt;&lt;b&gt;level&lt;/b&gt;&lt;/p&gt;&lt;hr size=&quot;1&quot;&gt;&lt;p style=&quot;margin: 0px ; margin-left: 4px&quot;&gt;- plantList: ArrayList &amp;lt;plants&amp;gt;&lt;br&gt;- zombieList: ArrayList &amp;lt;zombie&amp;gt;&lt;br&gt;&lt;/p&gt;&lt;p style=&quot;margin: 0px ; margin-left: 4px&quot;&gt;- shovelStatus : boolean&lt;/p&gt;&lt;p style=&quot;margin: 0px ; margin-left: 4px&quot;&gt;- multiplier : int&lt;/p&gt;&lt;p style=&quot;margin: 0px ; margin-left: 4px&quot;&gt;- unlockedPlant : plant&lt;/p&gt;&lt;hr size=&quot;1&quot;&gt;&lt;p style=&quot;margin: 0px ; margin-left: 4px&quot;&gt;+ level()&lt;br&gt;&lt;/p&gt;" style="verticalAlign=top;align=left;overflow=fill;fontSize=12;fontFamily=Helvetica;html=1;rounded=0;shadow=0;comic=0;labelBackgroundColor=none;strokeColor=#000000;strokeWidth=1;fillColor=#ffffff;" parent="1" vertex="1">
          <mxGeometry x="533" y="2735" width="412" height="159" as="geometry"/>
        </mxCell>
        <mxCell id="9MJ-vWY7rZcoQqbFH4Ai-34" style="edgeStyle=orthogonalEdgeStyle;rounded=0;orthogonalLoop=1;jettySize=auto;html=1;endArrow=diamond;endFill=1;" parent="1" edge="1">
          <mxGeometry relative="1" as="geometry">
            <mxPoint x="1693.1764705882351" y="3174.5" as="sourcePoint"/>
            <mxPoint x="1693.5" y="2973.5" as="targetPoint"/>
            <Array as="points">
              <mxPoint x="1693" y="3085"/>
              <mxPoint x="1693" y="3085"/>
            </Array>
          </mxGeometry>
        </mxCell>
        <mxCell id="9MJ-vWY7rZcoQqbFH4Ai-35" style="edgeStyle=orthogonalEdgeStyle;rounded=0;orthogonalLoop=1;jettySize=auto;html=1;endArrow=diamond;endFill=1;" parent="1" target="FB8TFo3xgYdQzvMxZdlZ-6" edge="1">
          <mxGeometry relative="1" as="geometry">
            <mxPoint x="2076.676470588235" y="3173.5" as="sourcePoint"/>
            <mxPoint x="2076.676470588235" y="2978" as="targetPoint"/>
            <Array as="points">
              <mxPoint x="2076.5" y="3173.5"/>
            </Array>
          </mxGeometry>
        </mxCell>
        <mxCell id="9MJ-vWY7rZcoQqbFH4Ai-36" style="edgeStyle=orthogonalEdgeStyle;rounded=0;orthogonalLoop=1;jettySize=auto;html=1;endArrow=diamond;endFill=1;" parent="1" edge="1">
          <mxGeometry relative="1" as="geometry">
            <mxPoint x="2417.5" y="3167.666666666667" as="sourcePoint"/>
            <mxPoint x="2417.5" y="2972.666666666667" as="targetPoint"/>
            <Array as="points">
              <mxPoint x="2417.5" y="3078.5"/>
              <mxPoint x="2417.5" y="3078.5"/>
            </Array>
          </mxGeometry>
        </mxCell>
        <mxCell id="9MJ-vWY7rZcoQqbFH4Ai-45" style="edgeStyle=orthogonalEdgeStyle;rounded=0;orthogonalLoop=1;jettySize=auto;html=1;endArrow=diamond;endFill=1;" parent="1" edge="1">
          <mxGeometry relative="1" as="geometry">
            <mxPoint x="3109.264705882353" y="3166.1470588235297" as="sourcePoint"/>
            <mxPoint x="3109.264705882353" y="2972.029411764706" as="targetPoint"/>
            <Array as="points">
              <mxPoint x="3109.5" y="3077.5"/>
              <mxPoint x="3109.5" y="3077.5"/>
            </Array>
          </mxGeometry>
        </mxCell>
        <mxCell id="9MJ-vWY7rZcoQqbFH4Ai-46" value="&lt;&lt;interface&gt;&gt;&#xa;animate" style="swimlane;fontStyle=1;align=center;verticalAlign=top;childLayout=stackLayout;horizontal=1;startSize=43;horizontalStack=0;resizeParent=1;resizeParentMax=0;resizeLast=0;collapsible=1;marginBottom=0;shadow=0;" parent="1" vertex="1">
          <mxGeometry x="2866.5" y="3831.5" width="627" height="106" as="geometry"/>
        </mxCell>
        <mxCell id="9MJ-vWY7rZcoQqbFH4Ai-48" value="" style="line;strokeWidth=1;fillColor=none;align=left;verticalAlign=middle;spacingTop=-1;spacingLeft=3;spacingRight=3;rotatable=0;labelPosition=right;points=[];portConstraint=eastwest;" parent="9MJ-vWY7rZcoQqbFH4Ai-46" vertex="1">
          <mxGeometry y="43" width="627" height="8" as="geometry"/>
        </mxCell>
        <mxCell id="9MJ-vWY7rZcoQqbFH4Ai-49" value="+ loadingAnimation() : void&#xa;+ availableAnimation() : void" style="text;strokeColor=none;fillColor=none;align=left;verticalAlign=top;spacingLeft=4;spacingRight=4;overflow=hidden;rotatable=0;points=[[0,0.5],[1,0.5]];portConstraint=eastwest;" parent="9MJ-vWY7rZcoQqbFH4Ai-46" vertex="1">
          <mxGeometry y="51" width="627" height="55" as="geometry"/>
        </mxCell>
        <mxCell id="9MJ-vWY7rZcoQqbFH4Ai-51" style="edgeStyle=orthogonalEdgeStyle;rounded=0;orthogonalLoop=1;jettySize=auto;html=1;endArrow=diamond;endFill=1;" parent="1" edge="1">
          <mxGeometry relative="1" as="geometry">
            <mxPoint x="3130.857142857143" y="3385.5" as="sourcePoint"/>
            <mxPoint x="3130.857142857143" y="3308.642857142857" as="targetPoint"/>
            <Array as="points">
              <mxPoint x="3131" y="3308.5"/>
            </Array>
          </mxGeometry>
        </mxCell>
        <mxCell id="9MJ-vWY7rZcoQqbFH4Ai-52" style="edgeStyle=orthogonalEdgeStyle;rounded=0;orthogonalLoop=1;jettySize=auto;html=1;endArrow=diamond;endFill=1;" parent="1" edge="1">
          <mxGeometry relative="1" as="geometry">
            <mxPoint x="3312" y="3569" as="sourcePoint"/>
            <mxPoint x="3311.8809523809523" y="3310.9523809523807" as="targetPoint"/>
            <Array as="points">
              <mxPoint x="3312" y="3311"/>
            </Array>
          </mxGeometry>
        </mxCell>
        <mxCell id="9MJ-vWY7rZcoQqbFH4Ai-54" style="edgeStyle=orthogonalEdgeStyle;rounded=0;orthogonalLoop=1;jettySize=auto;html=1;endArrow=diamond;endFill=1;" parent="1" edge="1">
          <mxGeometry relative="1" as="geometry">
            <mxPoint x="2979.2619047619046" y="3569.047619047619" as="sourcePoint"/>
            <mxPoint x="2979.2619047619046" y="3310.9523809523807" as="targetPoint"/>
            <Array as="points">
              <mxPoint x="2979.5" y="3311"/>
            </Array>
          </mxGeometry>
        </mxCell>
        <mxCell id="9MJ-vWY7rZcoQqbFH4Ai-60" style="edgeStyle=orthogonalEdgeStyle;rounded=0;orthogonalLoop=1;jettySize=auto;html=1;dashed=1;endArrow=block;endFill=0;entryX=0.127;entryY=0;entryDx=0;entryDy=0;entryPerimeter=0;" parent="1" edge="1">
          <mxGeometry relative="1" as="geometry">
            <mxPoint x="3130.0294117647063" y="3831.8529411764707" as="targetPoint"/>
            <mxPoint x="3130.0294117647063" y="3530" as="sourcePoint"/>
            <Array as="points">
              <mxPoint x="3130.5" y="3677.5"/>
            </Array>
          </mxGeometry>
        </mxCell>
        <mxCell id="9MJ-vWY7rZcoQqbFH4Ai-61" style="edgeStyle=orthogonalEdgeStyle;rounded=0;orthogonalLoop=1;jettySize=auto;html=1;dashed=1;endArrow=block;endFill=0;entryX=0.127;entryY=0;entryDx=0;entryDy=0;entryPerimeter=0;" parent="1" edge="1">
          <mxGeometry relative="1" as="geometry">
            <mxPoint x="3434.7058823529414" y="3831.8529411764707" as="targetPoint"/>
            <mxPoint x="3434.7058823529414" y="3529.5" as="sourcePoint"/>
            <Array as="points">
              <mxPoint x="3435" y="3677.5"/>
            </Array>
          </mxGeometry>
        </mxCell>
        <mxCell id="9MJ-vWY7rZcoQqbFH4Ai-65" style="edgeStyle=orthogonalEdgeStyle;rounded=0;orthogonalLoop=1;jettySize=auto;html=1;dashed=1;endArrow=block;endFill=0;entryX=0.745;entryY=0;entryDx=0;entryDy=0;entryPerimeter=0;" parent="1" edge="1">
          <mxGeometry relative="1" as="geometry">
            <mxPoint x="2976.666666666667" y="3831.666666666667" as="targetPoint"/>
            <mxPoint x="2976.666666666667" y="3708.5" as="sourcePoint"/>
          </mxGeometry>
        </mxCell>
        <mxCell id="9MJ-vWY7rZcoQqbFH4Ai-68" value="&lt;span style=&quot;font-size: 14px&quot;&gt;&lt;b&gt;1..*&lt;/b&gt;&lt;/span&gt;" style="text;html=1;strokeColor=none;fillColor=none;align=center;verticalAlign=middle;whiteSpace=wrap;rounded=0;shadow=0;" parent="1" vertex="1">
          <mxGeometry x="1408" y="3144" width="40" height="20" as="geometry"/>
        </mxCell>
        <mxCell id="9MJ-vWY7rZcoQqbFH4Ai-69" value="&lt;span style=&quot;font-size: 14px&quot;&gt;&lt;b&gt;1..*&lt;/b&gt;&lt;/span&gt;" style="text;html=1;strokeColor=none;fillColor=none;align=center;verticalAlign=middle;whiteSpace=wrap;rounded=0;shadow=0;" parent="1" vertex="1">
          <mxGeometry x="2077.5" y="3146" width="40" height="20" as="geometry"/>
        </mxCell>
        <mxCell id="9MJ-vWY7rZcoQqbFH4Ai-70" value="&lt;span style=&quot;font-size: 14px&quot;&gt;&lt;b&gt;3..5&lt;/b&gt;&lt;/span&gt;" style="text;html=1;strokeColor=none;fillColor=none;align=center;verticalAlign=middle;whiteSpace=wrap;rounded=0;shadow=0;" parent="1" vertex="1">
          <mxGeometry x="1697.5" y="3148" width="40" height="20" as="geometry"/>
        </mxCell>
        <mxCell id="9MJ-vWY7rZcoQqbFH4Ai-72" value="&lt;span style=&quot;font-size: 14px&quot;&gt;&lt;b&gt;1..*&lt;/b&gt;&lt;/span&gt;" style="text;html=1;strokeColor=none;fillColor=none;align=center;verticalAlign=middle;whiteSpace=wrap;rounded=0;shadow=0;" parent="1" vertex="1">
          <mxGeometry x="787" y="3520.5" width="40" height="20" as="geometry"/>
        </mxCell>
        <mxCell id="9MJ-vWY7rZcoQqbFH4Ai-73" value="&lt;span style=&quot;font-size: 14px&quot;&gt;&lt;b&gt;1..*&lt;/b&gt;&lt;/span&gt;" style="text;html=1;strokeColor=none;fillColor=none;align=center;verticalAlign=middle;whiteSpace=wrap;rounded=0;shadow=0;" parent="1" vertex="1">
          <mxGeometry x="2417.5" y="3148" width="40" height="20" as="geometry"/>
        </mxCell>
        <mxCell id="9MJ-vWY7rZcoQqbFH4Ai-74" value="&lt;span style=&quot;font-size: 14px&quot;&gt;&lt;b&gt;1&lt;/b&gt;&lt;/span&gt;" style="text;html=1;strokeColor=none;fillColor=none;align=center;verticalAlign=middle;whiteSpace=wrap;rounded=0;shadow=0;" parent="1" vertex="1">
          <mxGeometry x="3111" y="3144" width="40" height="20" as="geometry"/>
        </mxCell>
        <mxCell id="9MJ-vWY7rZcoQqbFH4Ai-75" value="&lt;span style=&quot;font-size: 14px&quot;&gt;&lt;b&gt;1&lt;/b&gt;&lt;/span&gt;" style="text;html=1;strokeColor=none;fillColor=none;align=center;verticalAlign=middle;whiteSpace=wrap;rounded=0;shadow=0;" parent="1" vertex="1">
          <mxGeometry x="2776.5" y="3365.5" width="40" height="20" as="geometry"/>
        </mxCell>
        <mxCell id="9MJ-vWY7rZcoQqbFH4Ai-76" value="&lt;span style=&quot;font-size: 14px&quot;&gt;&lt;b&gt;0..1&lt;/b&gt;&lt;/span&gt;" style="text;html=1;strokeColor=none;fillColor=none;align=center;verticalAlign=middle;whiteSpace=wrap;rounded=0;shadow=0;" parent="1" vertex="1">
          <mxGeometry x="2977.5" y="3543" width="40" height="20" as="geometry"/>
        </mxCell>
        <mxCell id="9MJ-vWY7rZcoQqbFH4Ai-81" value="&lt;span style=&quot;font-size: 14px&quot;&gt;&lt;b&gt;0..1&lt;/b&gt;&lt;/span&gt;" style="text;html=1;strokeColor=none;fillColor=none;align=center;verticalAlign=middle;whiteSpace=wrap;rounded=0;shadow=0;" parent="1" vertex="1">
          <mxGeometry x="3131" y="3365.5" width="40" height="20" as="geometry"/>
        </mxCell>
        <mxCell id="9MJ-vWY7rZcoQqbFH4Ai-82" value="&lt;span style=&quot;font-size: 14px&quot;&gt;&lt;b&gt;0..1&lt;/b&gt;&lt;/span&gt;" style="text;html=1;strokeColor=none;fillColor=none;align=center;verticalAlign=middle;whiteSpace=wrap;rounded=0;shadow=0;" parent="1" vertex="1">
          <mxGeometry x="3310.5" y="3547.5" width="40" height="20" as="geometry"/>
        </mxCell>
        <mxCell id="9MJ-vWY7rZcoQqbFH4Ai-83" value="&lt;span style=&quot;font-size: 14px&quot;&gt;&lt;b&gt;0..1&lt;/b&gt;&lt;/span&gt;" style="text;html=1;strokeColor=none;fillColor=none;align=center;verticalAlign=middle;whiteSpace=wrap;rounded=0;shadow=0;" parent="1" vertex="1">
          <mxGeometry x="3432" y="3369.5" width="40" height="20" as="geometry"/>
        </mxCell>
        <mxCell id="9MJ-vWY7rZcoQqbFH4Ai-87" value="&lt;span style=&quot;font-size: 14px&quot;&gt;&lt;b&gt;1..*&lt;/b&gt;&lt;/span&gt;" style="text;html=1;strokeColor=none;fillColor=none;align=center;verticalAlign=middle;whiteSpace=wrap;rounded=0;shadow=0;" parent="1" vertex="1">
          <mxGeometry x="1172.5" y="2795.5" width="40" height="20" as="geometry"/>
        </mxCell>
        <mxCell id="9MJ-vWY7rZcoQqbFH4Ai-88" value="&lt;span style=&quot;font-size: 14px&quot;&gt;&lt;b&gt;1&lt;/b&gt;&lt;/span&gt;" style="text;html=1;strokeColor=none;fillColor=none;align=center;verticalAlign=middle;whiteSpace=wrap;rounded=0;shadow=0;" parent="1" vertex="1">
          <mxGeometry x="2400.5" y="2652.5" width="40" height="20" as="geometry"/>
        </mxCell>
        <mxCell id="9MJ-vWY7rZcoQqbFH4Ai-92" value="" style="ellipse;whiteSpace=wrap;html=1;aspect=fixed;shadow=0;" parent="1" vertex="1">
          <mxGeometry x="1644.5" y="2223.5" width="24" height="24" as="geometry"/>
        </mxCell>
        <mxCell id="9MJ-vWY7rZcoQqbFH4Ai-94" value="" style="endArrow=none;html=1;exitX=1.002;exitY=0.482;exitDx=0;exitDy=0;exitPerimeter=0;entryX=0.001;entryY=0.449;entryDx=0;entryDy=0;entryPerimeter=0;" parent="1" target="FB8TFo3xgYdQzvMxZdlZ-10" edge="1">
          <mxGeometry width="50" height="50" relative="1" as="geometry">
            <mxPoint x="1668.0479999999998" y="2235.068" as="sourcePoint"/>
            <mxPoint x="1677" y="2235.968" as="targetPoint"/>
          </mxGeometry>
        </mxCell>
        <mxCell id="9MJ-vWY7rZcoQqbFH4Ai-96" value="&lt;b&gt;Serializable&lt;/b&gt;" style="text;html=1;strokeColor=none;fillColor=none;align=center;verticalAlign=middle;whiteSpace=wrap;rounded=0;shadow=0;" parent="1" vertex="1">
          <mxGeometry x="1534" y="2225.5" width="129" height="20" as="geometry"/>
        </mxCell>
        <mxCell id="9MJ-vWY7rZcoQqbFH4Ai-129" style="edgeStyle=orthogonalEdgeStyle;rounded=0;orthogonalLoop=1;jettySize=auto;html=1;endArrow=block;endFill=0;" parent="1" source="9MJ-vWY7rZcoQqbFH4Ai-110" edge="1">
          <mxGeometry relative="1" as="geometry">
            <mxPoint x="3105" y="2123.7999877929688" as="targetPoint"/>
          </mxGeometry>
        </mxCell>
        <mxCell id="9MJ-vWY7rZcoQqbFH4Ai-110" value="InvUsernameException" style="swimlane;fontStyle=1;childLayout=stackLayout;horizontal=1;startSize=36;fillColor=none;horizontalStack=0;resizeParent=1;resizeParentMax=0;resizeLast=0;collapsible=1;marginBottom=0;shadow=0;" parent="1" vertex="1">
          <mxGeometry x="3021.5" y="2215" width="167" height="84" as="geometry"/>
        </mxCell>
        <mxCell id="9MJ-vWY7rZcoQqbFH4Ai-130" style="edgeStyle=orthogonalEdgeStyle;rounded=0;orthogonalLoop=1;jettySize=auto;html=1;endArrow=block;endFill=0;" parent="1" source="9MJ-vWY7rZcoQqbFH4Ai-118" edge="1">
          <mxGeometry relative="1" as="geometry">
            <mxPoint x="3352.5" y="2123.7999877929688" as="targetPoint"/>
          </mxGeometry>
        </mxCell>
        <mxCell id="9MJ-vWY7rZcoQqbFH4Ai-118" value="PlantOccupiedException" style="swimlane;fontStyle=1;childLayout=stackLayout;horizontal=1;startSize=36;fillColor=none;horizontalStack=0;resizeParent=1;resizeParentMax=0;resizeLast=0;collapsible=1;marginBottom=0;shadow=0;" parent="1" vertex="1">
          <mxGeometry x="3269" y="2215" width="167" height="81" as="geometry"/>
        </mxCell>
        <mxCell id="9MJ-vWY7rZcoQqbFH4Ai-123" value="&lt;b&gt;&amp;lt;&amp;lt;throws&amp;gt;&amp;gt;&lt;/b&gt;" style="text;html=1;resizable=0;points=[];autosize=1;align=left;verticalAlign=top;spacingTop=-4;" parent="1" vertex="1">
          <mxGeometry x="2889" y="2221.5" width="77" height="14" as="geometry"/>
        </mxCell>
        <mxCell id="9MJ-vWY7rZcoQqbFH4Ai-124" value="&lt;b&gt;&amp;lt;&amp;lt;throws&amp;gt;&amp;gt;&lt;/b&gt;" style="text;html=1;resizable=0;points=[];autosize=1;align=left;verticalAlign=top;spacingTop=-4;" parent="1" vertex="1">
          <mxGeometry x="3359" y="2484" width="77" height="14" as="geometry"/>
        </mxCell>
        <mxCell id="9MJ-vWY7rZcoQqbFH4Ai-126" style="edgeStyle=orthogonalEdgeStyle;rounded=0;orthogonalLoop=1;jettySize=auto;html=1;endArrow=open;endFill=0;dashed=1;exitX=0.896;exitY=0;exitDx=0;exitDy=0;exitPerimeter=0;" parent="1" source="FB8TFo3xgYdQzvMxZdlZ-6" edge="1">
          <mxGeometry relative="1" as="geometry">
            <mxPoint x="3352" y="2565" as="sourcePoint"/>
            <mxPoint x="3352" y="2296" as="targetPoint"/>
          </mxGeometry>
        </mxCell>
        <mxCell id="9MJ-vWY7rZcoQqbFH4Ai-127" value="java.lang.Exception" style="swimlane;fontStyle=1;childLayout=stackLayout;horizontal=1;startSize=36;fillColor=none;horizontalStack=0;resizeParent=1;resizeParentMax=0;resizeLast=0;collapsible=1;marginBottom=0;shadow=0;" parent="1" vertex="1">
          <mxGeometry x="3076.5" y="2042.5" width="317" height="84" as="geometry"/>
        </mxCell>
        <mxCell id="9MJ-vWY7rZcoQqbFH4Ai-131" value="&lt;p style=&quot;margin: 0px ; margin-top: 4px ; text-align: center&quot;&gt;&lt;b&gt;ingameMenu&lt;/b&gt;&lt;/p&gt;&lt;hr size=&quot;1&quot;&gt;&lt;p style=&quot;margin: 0px ; margin-left: 4px&quot;&gt;- volume : int&lt;br&gt;- tutorialScreen : Image&lt;/p&gt;&lt;hr size=&quot;1&quot;&gt;&lt;p style=&quot;margin: 0px ; margin-left: 4px&quot;&gt;+ resumeGame() : void&lt;br&gt;&lt;/p&gt;&lt;p style=&quot;margin: 0px ; margin-left: 4px&quot;&gt;+ exitGame() : void&lt;/p&gt;&lt;p style=&quot;margin: 0px ; margin-left: 4px&quot;&gt;+ newGame() : void&lt;/p&gt;" style="verticalAlign=top;align=left;overflow=fill;fontSize=12;fontFamily=Helvetica;html=1;rounded=0;shadow=0;comic=0;labelBackgroundColor=none;strokeColor=#000000;strokeWidth=1;fillColor=#ffffff;" parent="1" vertex="1">
          <mxGeometry x="1523.5" y="2420" width="326" height="128" as="geometry"/>
        </mxCell>
        <mxCell id="9MJ-vWY7rZcoQqbFH4Ai-136" style="edgeStyle=orthogonalEdgeStyle;rounded=0;orthogonalLoop=1;jettySize=auto;html=1;endArrow=open;endFill=0;" parent="1" edge="1">
          <mxGeometry relative="1" as="geometry">
            <mxPoint x="1675.5" y="2677" as="sourcePoint"/>
            <mxPoint x="1675.8571428571431" y="2547.5" as="targetPoint"/>
            <Array as="points">
              <mxPoint x="1676" y="2653.5"/>
              <mxPoint x="1676" y="2653.5"/>
            </Array>
          </mxGeometry>
        </mxCell>
        <mxCell id="9MJ-vWY7rZcoQqbFH4Ai-137" value="&lt;span style=&quot;font-size: 14px&quot;&gt;&lt;b&gt;1&lt;/b&gt;&lt;/span&gt;" style="text;html=1;strokeColor=none;fillColor=none;align=center;verticalAlign=middle;whiteSpace=wrap;rounded=0;shadow=0;" parent="1" vertex="1">
          <mxGeometry x="1667.5" y="2652.5" width="40" height="20" as="geometry"/>
        </mxCell>
        <mxCell id="9MJ-vWY7rZcoQqbFH4Ai-138" style="edgeStyle=orthogonalEdgeStyle;rounded=0;orthogonalLoop=1;jettySize=auto;html=1;endArrow=diamond;endFill=1;exitX=0.469;exitY=0.014;exitDx=0;exitDy=0;exitPerimeter=0;" parent="1" source="9MJ-vWY7rZcoQqbFH4Ai-11" edge="1">
          <mxGeometry relative="1" as="geometry">
            <mxPoint x="2782.5" y="3386" as="sourcePoint"/>
            <mxPoint x="2782.5" y="3309" as="targetPoint"/>
            <Array as="points"/>
          </mxGeometry>
        </mxCell>
        <mxCell id="nXd3PZgItRdIIApioZsA-2" value="" style="ellipse;whiteSpace=wrap;html=1;aspect=fixed;shadow=0;" vertex="1" parent="1">
          <mxGeometry x="1055" y="2700.5" width="24" height="24" as="geometry"/>
        </mxCell>
        <mxCell id="nXd3PZgItRdIIApioZsA-3" value="" style="endArrow=none;html=1;exitX=1.002;exitY=0.482;exitDx=0;exitDy=0;exitPerimeter=0;entryX=0.001;entryY=0.449;entryDx=0;entryDy=0;entryPerimeter=0;" edge="1" parent="1">
          <mxGeometry width="50" height="50" relative="1" as="geometry">
            <mxPoint x="1078.5479999999998" y="2712.068" as="sourcePoint"/>
            <mxPoint x="1212.527" y="2713.514" as="targetPoint"/>
          </mxGeometry>
        </mxCell>
        <mxCell id="nXd3PZgItRdIIApioZsA-4" value="&lt;b&gt;Serializable&lt;/b&gt;" style="text;html=1;strokeColor=none;fillColor=none;align=center;verticalAlign=middle;whiteSpace=wrap;rounded=0;shadow=0;" vertex="1" parent="1">
          <mxGeometry x="944.5" y="2702.5" width="129" height="20" as="geometry"/>
        </mxCell>
        <mxCell id="nXd3PZgItRdIIApioZsA-5" value="" style="ellipse;whiteSpace=wrap;html=1;aspect=fixed;shadow=0;" vertex="1" parent="1">
          <mxGeometry x="375.5" y="2735" width="24" height="24" as="geometry"/>
        </mxCell>
        <mxCell id="nXd3PZgItRdIIApioZsA-6" value="" style="endArrow=none;html=1;exitX=1.002;exitY=0.482;exitDx=0;exitDy=0;exitPerimeter=0;entryX=0.001;entryY=0.449;entryDx=0;entryDy=0;entryPerimeter=0;" edge="1" parent="1">
          <mxGeometry width="50" height="50" relative="1" as="geometry">
            <mxPoint x="399.0479999999998" y="2746.568" as="sourcePoint"/>
            <mxPoint x="533.0270000000003" y="2748.014" as="targetPoint"/>
          </mxGeometry>
        </mxCell>
        <mxCell id="nXd3PZgItRdIIApioZsA-7" value="&lt;b&gt;Serializable&lt;/b&gt;" style="text;html=1;strokeColor=none;fillColor=none;align=center;verticalAlign=middle;whiteSpace=wrap;rounded=0;shadow=0;" vertex="1" parent="1">
          <mxGeometry x="282" y="2737" width="83" height="20" as="geometry"/>
        </mxCell>
        <mxCell id="nXd3PZgItRdIIApioZsA-11" value="" style="ellipse;whiteSpace=wrap;html=1;aspect=fixed;shadow=0;" vertex="1" parent="1">
          <mxGeometry x="1064" y="3171.5" width="24" height="24" as="geometry"/>
        </mxCell>
        <mxCell id="nXd3PZgItRdIIApioZsA-12" value="" style="endArrow=none;html=1;exitX=1.002;exitY=0.482;exitDx=0;exitDy=0;exitPerimeter=0;entryX=0;entryY=0.091;entryDx=0;entryDy=0;entryPerimeter=0;" edge="1" parent="1" target="5d2195bd80daf111-10">
          <mxGeometry width="50" height="50" relative="1" as="geometry">
            <mxPoint x="1087.5479999999998" y="3183.068" as="sourcePoint"/>
            <mxPoint x="1124" y="3185" as="targetPoint"/>
          </mxGeometry>
        </mxCell>
        <mxCell id="nXd3PZgItRdIIApioZsA-13" value="&lt;b&gt;Serializable&lt;/b&gt;" style="text;html=1;strokeColor=none;fillColor=none;align=center;verticalAlign=middle;whiteSpace=wrap;rounded=0;shadow=0;" vertex="1" parent="1">
          <mxGeometry x="981" y="3173.5" width="83" height="20" as="geometry"/>
        </mxCell>
        <mxCell id="nXd3PZgItRdIIApioZsA-15" value="" style="ellipse;whiteSpace=wrap;html=1;aspect=fixed;shadow=0;" vertex="1" parent="1">
          <mxGeometry x="907" y="3481.5" width="24" height="24" as="geometry"/>
        </mxCell>
        <mxCell id="nXd3PZgItRdIIApioZsA-16" value="" style="endArrow=none;html=1;exitX=1.002;exitY=0.482;exitDx=0;exitDy=0;exitPerimeter=0;entryX=0.001;entryY=0.122;entryDx=0;entryDy=0;entryPerimeter=0;" edge="1" parent="1" target="n6mAovTL0kQWr7K4-52L-12">
          <mxGeometry width="50" height="50" relative="1" as="geometry">
            <mxPoint x="930.5479999999998" y="3493.068" as="sourcePoint"/>
            <mxPoint x="969" y="3495" as="targetPoint"/>
          </mxGeometry>
        </mxCell>
        <mxCell id="nXd3PZgItRdIIApioZsA-17" value="&lt;b&gt;Serializable&lt;/b&gt;" style="text;html=1;strokeColor=none;fillColor=none;align=center;verticalAlign=middle;whiteSpace=wrap;rounded=0;shadow=0;" vertex="1" parent="1">
          <mxGeometry x="824" y="3483.5" width="83" height="20" as="geometry"/>
        </mxCell>
        <mxCell id="nXd3PZgItRdIIApioZsA-21" value="" style="ellipse;whiteSpace=wrap;html=1;aspect=fixed;shadow=0;" vertex="1" parent="1">
          <mxGeometry x="457" y="3476.5" width="24" height="24" as="geometry"/>
        </mxCell>
        <mxCell id="nXd3PZgItRdIIApioZsA-22" value="" style="endArrow=none;html=1;exitX=1.002;exitY=0.482;exitDx=0;exitDy=0;exitPerimeter=0;entryX=0.001;entryY=0.122;entryDx=0;entryDy=0;entryPerimeter=0;" edge="1" parent="1">
          <mxGeometry width="50" height="50" relative="1" as="geometry">
            <mxPoint x="480.548" y="3488.068" as="sourcePoint"/>
            <mxPoint x="517.7749999999999" y="3487.726" as="targetPoint"/>
          </mxGeometry>
        </mxCell>
        <mxCell id="nXd3PZgItRdIIApioZsA-23" value="&lt;b&gt;Serializable&lt;/b&gt;" style="text;html=1;strokeColor=none;fillColor=none;align=center;verticalAlign=middle;whiteSpace=wrap;rounded=0;shadow=0;" vertex="1" parent="1">
          <mxGeometry x="374" y="3478.5" width="83" height="20" as="geometry"/>
        </mxCell>
        <mxCell id="nXd3PZgItRdIIApioZsA-24" value="" style="ellipse;whiteSpace=wrap;html=1;aspect=fixed;shadow=0;" vertex="1" parent="1">
          <mxGeometry x="929.5" y="3668" width="24" height="24" as="geometry"/>
        </mxCell>
        <mxCell id="nXd3PZgItRdIIApioZsA-25" value="" style="endArrow=none;html=1;exitX=1.002;exitY=0.482;exitDx=0;exitDy=0;exitPerimeter=0;entryX=0.001;entryY=0.122;entryDx=0;entryDy=0;entryPerimeter=0;" edge="1" parent="1">
          <mxGeometry width="50" height="50" relative="1" as="geometry">
            <mxPoint x="953.048" y="3679.568" as="sourcePoint"/>
            <mxPoint x="990.2749999999999" y="3679.226" as="targetPoint"/>
          </mxGeometry>
        </mxCell>
        <mxCell id="nXd3PZgItRdIIApioZsA-26" value="&lt;b&gt;Serializable&lt;/b&gt;" style="text;html=1;strokeColor=none;fillColor=none;align=center;verticalAlign=middle;whiteSpace=wrap;rounded=0;shadow=0;" vertex="1" parent="1">
          <mxGeometry x="846.5" y="3670" width="83" height="20" as="geometry"/>
        </mxCell>
        <mxCell id="nXd3PZgItRdIIApioZsA-27" value="" style="ellipse;whiteSpace=wrap;html=1;aspect=fixed;shadow=0;" vertex="1" parent="1">
          <mxGeometry x="1630.5" y="3673" width="24" height="24" as="geometry"/>
        </mxCell>
        <mxCell id="nXd3PZgItRdIIApioZsA-28" value="" style="endArrow=none;html=1;exitX=1.002;exitY=0.482;exitDx=0;exitDy=0;exitPerimeter=0;entryX=0.001;entryY=0.122;entryDx=0;entryDy=0;entryPerimeter=0;" edge="1" parent="1">
          <mxGeometry width="50" height="50" relative="1" as="geometry">
            <mxPoint x="1592.548" y="3685.068" as="sourcePoint"/>
            <mxPoint x="1629.7749999999999" y="3684.726" as="targetPoint"/>
          </mxGeometry>
        </mxCell>
        <mxCell id="nXd3PZgItRdIIApioZsA-29" value="&lt;b&gt;Serializable&lt;/b&gt;" style="text;html=1;strokeColor=none;fillColor=none;align=center;verticalAlign=middle;whiteSpace=wrap;rounded=0;shadow=0;" vertex="1" parent="1">
          <mxGeometry x="1649.5" y="3675" width="83" height="20" as="geometry"/>
        </mxCell>
        <mxCell id="nXd3PZgItRdIIApioZsA-30" value="" style="ellipse;whiteSpace=wrap;html=1;aspect=fixed;shadow=0;" vertex="1" parent="1">
          <mxGeometry x="1512" y="3386" width="24" height="24" as="geometry"/>
        </mxCell>
        <mxCell id="nXd3PZgItRdIIApioZsA-31" value="" style="endArrow=none;html=1;entryX=0.502;entryY=0.956;entryDx=0;entryDy=0;entryPerimeter=0;exitX=0.642;exitY=-0.004;exitDx=0;exitDy=0;exitPerimeter=0;" edge="1" parent="1" target="nXd3PZgItRdIIApioZsA-30">
          <mxGeometry width="50" height="50" relative="1" as="geometry">
            <mxPoint x="1524.742" y="3465.4" as="sourcePoint"/>
            <mxPoint x="1520" y="3409.5" as="targetPoint"/>
          </mxGeometry>
        </mxCell>
        <mxCell id="nXd3PZgItRdIIApioZsA-32" value="&lt;b&gt;Serializable&lt;/b&gt;" style="text;html=1;strokeColor=none;fillColor=none;align=center;verticalAlign=middle;whiteSpace=wrap;rounded=0;shadow=0;" vertex="1" parent="1">
          <mxGeometry x="1482" y="3368" width="83" height="20" as="geometry"/>
        </mxCell>
        <mxCell id="nXd3PZgItRdIIApioZsA-34" value="" style="ellipse;whiteSpace=wrap;html=1;aspect=fixed;shadow=0;" vertex="1" parent="1">
          <mxGeometry x="1957.5" y="3094" width="24" height="24" as="geometry"/>
        </mxCell>
        <mxCell id="nXd3PZgItRdIIApioZsA-35" value="" style="endArrow=none;html=1;entryX=0.502;entryY=0.956;entryDx=0;entryDy=0;entryPerimeter=0;exitX=0.642;exitY=-0.004;exitDx=0;exitDy=0;exitPerimeter=0;" edge="1" parent="1" target="nXd3PZgItRdIIApioZsA-34">
          <mxGeometry width="50" height="50" relative="1" as="geometry">
            <mxPoint x="1970.2419999999997" y="3173.4" as="sourcePoint"/>
            <mxPoint x="1965.5" y="3117.5" as="targetPoint"/>
          </mxGeometry>
        </mxCell>
        <mxCell id="nXd3PZgItRdIIApioZsA-36" value="&lt;b&gt;Serializable&lt;/b&gt;" style="text;html=1;strokeColor=none;fillColor=none;align=center;verticalAlign=middle;whiteSpace=wrap;rounded=0;shadow=0;" vertex="1" parent="1">
          <mxGeometry x="1927.5" y="3076" width="83" height="20" as="geometry"/>
        </mxCell>
        <mxCell id="nXd3PZgItRdIIApioZsA-37" value="" style="ellipse;whiteSpace=wrap;html=1;aspect=fixed;shadow=0;" vertex="1" parent="1">
          <mxGeometry x="1615.5" y="3094" width="24" height="24" as="geometry"/>
        </mxCell>
        <mxCell id="nXd3PZgItRdIIApioZsA-38" value="" style="endArrow=none;html=1;entryX=0.502;entryY=0.956;entryDx=0;entryDy=0;entryPerimeter=0;exitX=0.642;exitY=-0.004;exitDx=0;exitDy=0;exitPerimeter=0;" edge="1" parent="1" target="nXd3PZgItRdIIApioZsA-37">
          <mxGeometry width="50" height="50" relative="1" as="geometry">
            <mxPoint x="1628.2419999999997" y="3173.4" as="sourcePoint"/>
            <mxPoint x="1623.5" y="3117.5" as="targetPoint"/>
          </mxGeometry>
        </mxCell>
        <mxCell id="nXd3PZgItRdIIApioZsA-39" value="&lt;b&gt;Serializable&lt;/b&gt;" style="text;html=1;strokeColor=none;fillColor=none;align=center;verticalAlign=middle;whiteSpace=wrap;rounded=0;shadow=0;" vertex="1" parent="1">
          <mxGeometry x="1585.5" y="3076" width="83" height="20" as="geometry"/>
        </mxCell>
        <mxCell id="nXd3PZgItRdIIApioZsA-43" value="" style="ellipse;whiteSpace=wrap;html=1;aspect=fixed;shadow=0;" vertex="1" parent="1">
          <mxGeometry x="1795" y="3407" width="24" height="24" as="geometry"/>
        </mxCell>
        <mxCell id="nXd3PZgItRdIIApioZsA-44" value="" style="endArrow=none;html=1;entryX=0.502;entryY=0.956;entryDx=0;entryDy=0;entryPerimeter=0;exitX=0.642;exitY=-0.004;exitDx=0;exitDy=0;exitPerimeter=0;" edge="1" parent="1" target="nXd3PZgItRdIIApioZsA-43">
          <mxGeometry width="50" height="50" relative="1" as="geometry">
            <mxPoint x="1807.7419999999997" y="3486.3999999999996" as="sourcePoint"/>
            <mxPoint x="1803" y="3430.5" as="targetPoint"/>
          </mxGeometry>
        </mxCell>
        <mxCell id="nXd3PZgItRdIIApioZsA-45" value="&lt;b&gt;Serializable&lt;/b&gt;" style="text;html=1;strokeColor=none;fillColor=none;align=center;verticalAlign=middle;whiteSpace=wrap;rounded=0;shadow=0;" vertex="1" parent="1">
          <mxGeometry x="1765" y="3389" width="83" height="20" as="geometry"/>
        </mxCell>
        <mxCell id="nXd3PZgItRdIIApioZsA-46" value="" style="ellipse;whiteSpace=wrap;html=1;aspect=fixed;shadow=0;" vertex="1" parent="1">
          <mxGeometry x="2352.5" y="3409" width="24" height="24" as="geometry"/>
        </mxCell>
        <mxCell id="nXd3PZgItRdIIApioZsA-47" value="" style="endArrow=none;html=1;entryX=0.502;entryY=0.956;entryDx=0;entryDy=0;entryPerimeter=0;exitX=0.642;exitY=-0.004;exitDx=0;exitDy=0;exitPerimeter=0;" edge="1" parent="1" target="nXd3PZgItRdIIApioZsA-46">
          <mxGeometry width="50" height="50" relative="1" as="geometry">
            <mxPoint x="2365.2419999999997" y="3488.3999999999996" as="sourcePoint"/>
            <mxPoint x="2360.5" y="3432.5" as="targetPoint"/>
          </mxGeometry>
        </mxCell>
        <mxCell id="nXd3PZgItRdIIApioZsA-48" value="&lt;b&gt;Serializable&lt;/b&gt;" style="text;html=1;strokeColor=none;fillColor=none;align=center;verticalAlign=middle;whiteSpace=wrap;rounded=0;shadow=0;" vertex="1" parent="1">
          <mxGeometry x="2322.5" y="3391" width="83" height="20" as="geometry"/>
        </mxCell>
        <mxCell id="nXd3PZgItRdIIApioZsA-49" value="" style="ellipse;whiteSpace=wrap;html=1;aspect=fixed;shadow=0;" vertex="1" parent="1">
          <mxGeometry x="1856.5" y="3658.5" width="24" height="24" as="geometry"/>
        </mxCell>
        <mxCell id="nXd3PZgItRdIIApioZsA-50" value="" style="endArrow=none;html=1;exitX=1.002;exitY=0.482;exitDx=0;exitDy=0;exitPerimeter=0;entryX=0.001;entryY=0.122;entryDx=0;entryDy=0;entryPerimeter=0;" edge="1" parent="1">
          <mxGeometry width="50" height="50" relative="1" as="geometry">
            <mxPoint x="1880.0479999999998" y="3670.068" as="sourcePoint"/>
            <mxPoint x="1917.2749999999999" y="3669.726" as="targetPoint"/>
          </mxGeometry>
        </mxCell>
        <mxCell id="nXd3PZgItRdIIApioZsA-51" value="&lt;b&gt;Serializable&lt;/b&gt;" style="text;html=1;strokeColor=none;fillColor=none;align=center;verticalAlign=middle;whiteSpace=wrap;rounded=0;shadow=0;" vertex="1" parent="1">
          <mxGeometry x="1773.5" y="3660.5" width="83" height="20" as="geometry"/>
        </mxCell>
        <mxCell id="nXd3PZgItRdIIApioZsA-52" value="" style="ellipse;whiteSpace=wrap;html=1;aspect=fixed;shadow=0;" vertex="1" parent="1">
          <mxGeometry x="2341" y="3092" width="24" height="24" as="geometry"/>
        </mxCell>
        <mxCell id="nXd3PZgItRdIIApioZsA-53" value="" style="endArrow=none;html=1;entryX=0.502;entryY=0.956;entryDx=0;entryDy=0;entryPerimeter=0;exitX=0.642;exitY=-0.004;exitDx=0;exitDy=0;exitPerimeter=0;" edge="1" parent="1" target="nXd3PZgItRdIIApioZsA-52">
          <mxGeometry width="50" height="50" relative="1" as="geometry">
            <mxPoint x="2353.7419999999997" y="3171.3999999999996" as="sourcePoint"/>
            <mxPoint x="2349" y="3115.5" as="targetPoint"/>
          </mxGeometry>
        </mxCell>
        <mxCell id="nXd3PZgItRdIIApioZsA-54" value="&lt;b&gt;Serializable&lt;/b&gt;" style="text;html=1;strokeColor=none;fillColor=none;align=center;verticalAlign=middle;whiteSpace=wrap;rounded=0;shadow=0;" vertex="1" parent="1">
          <mxGeometry x="2311" y="3074" width="83" height="20" as="geometry"/>
        </mxCell>
        <mxCell id="nXd3PZgItRdIIApioZsA-60" value="&lt;h2 style=&quot;white-space: nowrap&quot;&gt;&lt;font style=&quot;font-size: 72px&quot;&gt;&lt;b&gt;Plants Vs Zombies - UML Class Diagram&lt;/b&gt;&lt;/font&gt;&lt;/h2&gt;" style="text;html=1;strokeColor=none;fillColor=none;align=left;verticalAlign=middle;whiteSpace=wrap;rounded=0;" vertex="1" parent="1">
          <mxGeometry x="342" y="2012" width="1439" height="158" as="geometry"/>
        </mxCell>
        <mxCell id="nXd3PZgItRdIIApioZsA-66" value="&lt;h2 style=&quot;white-space: nowrap&quot;&gt;&lt;font style=&quot;font-size: 48px&quot;&gt;&lt;b&gt;Made by :&lt;/b&gt;&lt;/font&gt;&lt;/h2&gt;" style="text;html=1;strokeColor=none;fillColor=none;align=center;verticalAlign=middle;whiteSpace=wrap;rounded=0;" vertex="1" parent="1">
          <mxGeometry x="324" y="2157" width="259" height="72" as="geometry"/>
        </mxCell>
        <mxCell id="nXd3PZgItRdIIApioZsA-67" value="&lt;h2 style=&quot;white-space: nowrap&quot;&gt;&lt;font style=&quot;font-weight: normal ; font-size: 48px&quot;&gt;Abhinandan Kainth ( 2018001 )&lt;/font&gt;&lt;/h2&gt;&lt;div&gt;&lt;span style=&quot;font-size: 48px&quot;&gt;Anmol Kumar ( 2018382 )&lt;/span&gt;&lt;/div&gt;" style="text;html=1;strokeColor=none;fillColor=none;align=left;verticalAlign=middle;whiteSpace=wrap;rounded=0;" vertex="1" parent="1">
          <mxGeometry x="333" y="2252.5" width="991" height="72" as="geometry"/>
        </mxCell>
        <mxCell id="nXd3PZgItRdIIApioZsA-69" value="Text" style="text;html=1;resizable=0;points=[];autosize=1;align=left;verticalAlign=top;spacingTop=-4;" vertex="1" parent="1">
          <mxGeometry x="919" y="2098" width="32" height="13" as="geometry"/>
        </mxCell>
      </root>
    </mxGraphModel>
  </diagram>
</mxfile>
